<?xml version="1.0" encoding="UTF-8" standalone="no"?>
<svg width="240" height="160" viewBox="0 0 240 160" xmlns="http://www.w3.org/2000/svg">
  <rect x="0" y="0" width="240" height="160" fill="#f0f8ff" rx="8" ry="8" />
  
  <text x="120" y="25" font-family="Arial, sans-serif" font-size="14" text-anchor="middle" font-weight="bold" fill="#033C73">Prediction</text>
  
  <rect x="15" y="40" width="90" height="30" fill="#ffffff" stroke="#033C73" stroke-width="2" rx="4" ry="4" />
  <text x="60" y="60" font-family="Arial, sans-serif" font-size="10" text-anchor="middle" fill="#033C73">Arsenal/Chelsea</text>
  
  <line x1="60" y1="85" x2="60" y2="100" stroke="#033C73" stroke-width="2" />
  <polygon points="55,98 60,105 65,98" fill="#033C73" />
  
  <rect x="15" y="105" width="90" height="30" fill="#ffffff" stroke="#033C73" stroke-width="2" rx="4" ry="4" />
  <circle cx="35" cy="120" r="8" fill="none" stroke="#033C73" stroke-width="1.5" />
  <circle cx="35" cy="120" r="4" fill="#0066CC" opacity="0.3" />
  <text x="60" y="124" font-family="Arial, sans-serif" font-size="10" text-anchor="middle" fill="#033C73">Model</text>
  
  <line x1="115" y1="120" x2="135" y2="120" stroke="#033C73" stroke-width="2" />
  <polygon points="133,115 140,120 133,125" fill="#033C73" />
  
  <rect x="135" y="60" width="90" height="80" fill="#ffffff" stroke="#033C73" stroke-width="2" rx="4" ry="4" />
  
  <text x="180" y="75" font-family="Arial, sans-serif" font-size="10" text-anchor="middle" font-weight="bold" fill="#033C73">Result</text>
  
  <rect x="145" y="85" width="70" height="10" fill="#e6e6e6" rx="3" ry="3" />
  <rect x="145" y="85" width="45" height="10" fill="#0066CC" opacity="0.6" rx="3" ry="3" />
  <text x="150" y="93" font-family="Arial, sans-serif" font-size="8" fill="#033C73">Home: 44%</text>
  
  <rect x="145" y="100" width="70" height="10" fill="#e6e6e6" rx="3" ry="3" />
  <rect x="145" y="100" width="20" height="10" fill="#0066CC" opacity="0.6" rx="3" ry="3" />
  <text x="150" y="108" font-family="Arial, sans-serif" font-size="8" fill="#033C73">Draw: 34%</text>
  
  <rect x="145" y="115" width="70" height="10" fill="#e6e6e6" rx="3" ry="3" />
  <rect x="145" y="115" width="10" height="10" fill="#0066CC" opacity="0.6" rx="3" ry="3" />
  <text x="150" y="123" font-family="Arial, sans-serif" font-size="8" fill="#033C73">Away: 23%</text>
  
  <text x="180" y="135" font-family="Arial, sans-serif" font-size="10" text-anchor="middle" font-weight="bold" fill="#033C73">Home win</text>
  
</svg> 